<?xml version="1.0" encoding="utf-8"?>
<!-- Generator: Adobe Illustrator 27.5.0, SVG Export Plug-In . SVG Version: 6.00 Build 0)  -->
<svg version="1.1" xmlns="http://www.w3.org/2000/svg" xmlns:xlink="http://www.w3.org/1999/xlink" x="0px" y="0px"
	 viewBox="0 0 2500 2500" style="enable-background:new 0 0 2500 2500;" xml:space="preserve">
<g id="BG">
	<rect style="fill:#005AE6;" width="2500" height="2500"/>
</g>
<g id="shadow">
	<path style="fill:#003C99;" d="M2069.886,2071.007H492.083c-6.043,0-10.942-4.899-10.942-10.942l0,0
		c0-6.043,4.899-10.942,10.942-10.942h1577.803c6.043,0,10.942,4.899,10.942,10.942l0,0
		C2080.828,2066.108,2075.929,2071.007,2069.886,2071.007z"/>
</g>
<g id="elements">
	<g id="cloud_1_">
		<g>
			<path style="fill:#80B2FF;" d="M497.988,888.159c0.08-1.029,0.133-2.065,0.133-3.114c0-21.949-17.793-39.742-39.742-39.742
				s-39.742,17.793-39.742,39.742c0,1.049,0.053,2.085,0.133,3.114H497.988z"/>
			<path style="fill:#80B2FF;" d="M628.548,888.159c0.08-1.029,0.133-2.065,0.133-3.114c0-21.949-17.793-39.742-39.742-39.742
				c-21.949,0-39.742,17.793-39.742,39.742c0,1.049,0.053,2.085,0.133,3.114H628.548z"/>
			<path style="fill:#80B2FF;" d="M662.36,888.159c0.113-1.023,0.176-2.061,0.176-3.114c0-15.52-12.582-28.102-28.102-28.102
				s-28.102,12.582-28.102,28.102c0,1.053,0.063,2.091,0.176,3.114H662.36z"/>
			<path style="fill:#80B2FF;" d="M582.835,888.159c0.308-2.426,0.467-4.899,0.467-7.408c0-32.154-26.066-58.219-58.219-58.219
				c-32.154,0-58.219,26.066-58.219,58.219c0,2.51,0.159,4.982,0.467,7.408H582.835z"/>
		</g>
		<g>
			<path style="fill:#80B2FF;" d="M1477.191,434.078c0.08-1.029,0.133-2.065,0.133-3.114c0-21.949-17.793-39.742-39.742-39.742
				c-21.949,0-39.742,17.793-39.742,39.742c0,1.049,0.053,2.085,0.133,3.114H1477.191z"/>
			<path style="fill:#80B2FF;" d="M1607.752,434.078c0.08-1.029,0.133-2.065,0.133-3.114c0-21.949-17.793-39.742-39.742-39.742
				c-21.949,0-39.742,17.793-39.742,39.742c0,1.049,0.053,2.085,0.133,3.114H1607.752z"/>
			<path style="fill:#80B2FF;" d="M1562.038,434.078c0.308-2.426,0.467-4.899,0.467-7.408c0-32.154-26.066-58.219-58.219-58.219
				c-32.154,0-58.219,26.066-58.219,58.219c0,2.509,0.159,4.982,0.467,7.408H1562.038z"/>
		</g>
	</g>
	<g id="card_1_">
		<path style="fill:#C0DAFF;" d="M1268.414,890.399h-14.318c-1.059,0-1.917-0.858-1.917-1.918c0-1.059,0.858-1.917,1.917-1.917
			h14.318c1.059,0,1.917,0.858,1.917,1.917C1270.331,889.541,1269.473,890.399,1268.414,890.399z M1239.778,890.399h-14.318
			c-1.059,0-1.917-0.858-1.917-1.918c0-1.059,0.858-1.917,1.917-1.917h14.318c1.059,0,1.917,0.858,1.917,1.917
			C1241.696,889.541,1240.837,890.399,1239.778,890.399z M1211.143,890.399h-14.318c-1.059,0-1.917-0.858-1.917-1.918
			c0-1.059,0.858-1.917,1.917-1.917h14.318c1.059,0,1.917,0.858,1.917,1.917C1213.06,889.541,1212.202,890.399,1211.143,890.399z
			 M1182.508,890.399h-14.318c-1.059,0-1.917-0.858-1.917-1.918c0-1.059,0.858-1.917,1.917-1.917h14.318
			c1.059,0,1.917,0.858,1.917,1.917C1184.425,889.541,1183.567,890.399,1182.508,890.399z M1153.873,890.399h-14.318
			c-1.059,0-1.917-0.858-1.917-1.918c0-1.059,0.858-1.917,1.917-1.917h14.318c1.059,0,1.917,0.858,1.917,1.917
			C1155.79,889.541,1154.932,890.399,1153.873,890.399z M1125.237,890.399h-14.318c-1.059,0-1.917-0.858-1.917-1.918
			c0-1.059,0.858-1.917,1.917-1.917h14.318c1.059,0,1.917,0.858,1.917,1.917C1127.155,889.541,1126.296,890.399,1125.237,890.399z
			 M1096.602,890.399h-14.318c-1.059,0-1.917-0.858-1.917-1.918c0-1.059,0.858-1.917,1.917-1.917h14.318
			c1.059,0,1.917,0.858,1.917,1.917C1098.52,889.541,1097.661,890.399,1096.602,890.399z M1067.967,890.399h-14.318
			c-1.059,0-1.918-0.858-1.918-1.918c0-1.059,0.858-1.917,1.918-1.917h14.318c1.059,0,1.917,0.858,1.917,1.917
			C1069.884,889.541,1069.026,890.399,1067.967,890.399z M1039.331,890.399h-14.318c-1.059,0-1.917-0.858-1.917-1.918
			c0-1.059,0.858-1.917,1.917-1.917h14.318c1.059,0,1.918,0.858,1.918,1.917C1041.249,889.541,1040.391,890.399,1039.331,890.399z
			 M1010.696,890.399h-14.318c-1.059,0-1.917-0.858-1.917-1.918c0-1.059,0.858-1.917,1.917-1.917h14.318
			c1.059,0,1.917,0.858,1.917,1.917C1012.614,889.541,1011.755,890.399,1010.696,890.399z M982.06,890.399h-14.317
			c-1.059,0-1.917-0.858-1.917-1.918c0-1.059,0.858-1.917,1.917-1.917h14.317c1.059,0,1.918,0.858,1.918,1.917
			C983.978,889.541,983.12,890.399,982.06,890.399z M953.425,890.399h-14.317c-1.059,0-1.918-0.858-1.918-1.918
			c0-1.059,0.858-1.917,1.918-1.917h14.317c1.059,0,1.917,0.858,1.917,1.917C955.343,889.541,954.484,890.399,953.425,890.399z
			 M924.79,890.399h-14.317c-1.059,0-1.917-0.858-1.917-1.918c0-1.059,0.858-1.917,1.917-1.917h14.317
			c1.059,0,1.917,0.858,1.917,1.917C926.707,889.541,925.849,890.399,924.79,890.399z M896.155,890.399h-14.317
			c-1.059,0-1.918-0.858-1.918-1.918c0-1.059,0.858-1.917,1.918-1.917h14.317c1.059,0,1.917,0.858,1.917,1.917
			C898.072,889.541,897.214,890.399,896.155,890.399z M867.519,890.399h-14.318c-1.059,0-1.917-0.858-1.917-1.918
			c0-1.059,0.858-1.917,1.917-1.917h14.318c1.059,0,1.918,0.858,1.918,1.917C869.437,889.541,868.579,890.399,867.519,890.399z
			 M838.884,890.399h-14.318c-1.059,0-1.918-0.858-1.918-1.918c0-1.059,0.858-1.917,1.918-1.917h14.318
			c1.059,0,1.917,0.858,1.917,1.917C840.802,889.541,839.943,890.399,838.884,890.399z M810.249,890.399h-14.318
			c-1.059,0-1.918-0.858-1.918-1.918c0-1.059,0.858-1.917,1.918-1.917h14.318c1.059,0,1.917,0.858,1.917,1.917
			C812.167,889.541,811.308,890.399,810.249,890.399z M781.614,890.399h-14.318c-1.059,0-1.918-0.858-1.918-1.918
			c0-1.059,0.858-1.917,1.918-1.917h14.318c1.059,0,1.918,0.858,1.918,1.917C783.531,889.541,782.673,890.399,781.614,890.399z
			 M752.979,890.399h-2.335c-4.533,0-8.889-1.596-12.265-4.493c-0.803-0.69-0.896-1.9-0.206-2.704
			c0.689-0.804,1.9-0.896,2.704-0.206c2.681,2.301,6.149,3.568,9.767,3.568h2.335c1.059,0,1.917,0.858,1.917,1.917
			C754.896,889.541,754.038,890.399,752.979,890.399z M1281.992,887.007c-0.58,0-1.153-0.263-1.53-0.761
			c-0.639-0.845-0.472-2.047,0.373-2.685c3.484-2.635,5.487-6.565,5.496-10.784c0.002-1.058,0.859-1.914,1.917-1.914
			c0.001,0,0.003,0,0.004,0c1.059,0.002,1.915,0.862,1.913,1.921c-0.01,5.428-2.568,10.471-7.018,13.835
			C1282.802,886.88,1282.396,887.007,1281.992,887.007z M734.162,873.681c-1.059,0-1.917-0.858-1.917-1.918v-14.317
			c0-1.059,0.858-1.917,1.917-1.917c1.059,0,1.918,0.858,1.918,1.917v14.317C736.079,872.823,735.221,873.681,734.162,873.681z
			 M1288.248,860.38c-1.059,0-1.917-0.858-1.917-1.917v-14.318c0-1.059,0.858-1.917,1.917-1.917s1.917,0.858,1.917,1.917v14.318
			C1290.165,859.521,1289.307,860.38,1288.248,860.38z M734.162,845.046c-1.059,0-1.917-0.858-1.917-1.917v-14.317
			c0-1.059,0.858-1.917,1.917-1.917c1.059,0,1.918,0.858,1.918,1.917v14.317C736.079,844.188,735.221,845.046,734.162,845.046z
			 M1288.248,831.745c-1.059,0-1.917-0.858-1.917-1.918v-14.318c0-1.059,0.858-1.917,1.917-1.917s1.917,0.858,1.917,1.917v14.318
			C1290.165,830.886,1289.307,831.745,1288.248,831.745z M734.162,816.411c-1.059,0-1.917-0.858-1.917-1.917v-14.317
			c0-1.059,0.858-1.917,1.917-1.917c1.059,0,1.918,0.858,1.918,1.917v14.317C736.079,815.552,735.221,816.411,734.162,816.411z
			 M1288.248,803.109c-1.059,0-1.917-0.858-1.917-1.917v-14.318c0-1.059,0.858-1.918,1.917-1.918s1.917,0.858,1.917,1.918v14.318
			C1290.165,802.251,1289.307,803.109,1288.248,803.109z M734.162,787.775c-1.059,0-1.917-0.858-1.917-1.917v-14.317
			c0-1.059,0.858-1.918,1.917-1.918c1.059,0,1.918,0.858,1.918,1.918v14.317C736.079,786.917,735.221,787.775,734.162,787.775z
			 M1288.248,774.474c-1.059,0-1.917-0.858-1.917-1.918v-14.318c0-1.059,0.858-1.917,1.917-1.917s1.917,0.858,1.917,1.917v14.318
			C1290.165,773.616,1289.307,774.474,1288.248,774.474z M734.162,759.14c-1.059,0-1.917-0.858-1.917-1.917v-14.318
			c0-1.059,0.858-1.917,1.917-1.917c1.059,0,1.918,0.858,1.918,1.917v14.318C736.079,758.282,735.221,759.14,734.162,759.14z
			 M1288.248,745.838c-1.059,0-1.917-0.858-1.917-1.917v-14.317c0-1.059,0.858-1.918,1.917-1.918s1.917,0.858,1.917,1.918v14.317
			C1290.165,744.98,1289.307,745.838,1288.248,745.838z M734.162,730.505c-1.059,0-1.917-0.858-1.917-1.917v-14.318
			c0-1.059,0.858-1.917,1.917-1.917c1.059,0,1.918,0.858,1.918,1.917v14.318C736.079,729.646,735.221,730.505,734.162,730.505z
			 M1288.248,717.203c-1.059,0-1.917-0.858-1.917-1.918v-14.317c0-1.059,0.858-1.918,1.917-1.918s1.917,0.858,1.917,1.918v14.317
			C1290.165,716.345,1289.307,717.203,1288.248,717.203z M734.162,701.87c-1.059,0-1.917-0.858-1.917-1.918v-14.318
			c0-1.059,0.858-1.917,1.917-1.917c1.059,0,1.918,0.858,1.918,1.917v14.318C736.079,701.011,735.221,701.87,734.162,701.87z
			 M1288.248,688.568c-1.059,0-1.917-0.858-1.917-1.917v-14.317c0-1.059,0.858-1.917,1.917-1.917s1.917,0.858,1.917,1.917v14.317
			C1290.165,687.709,1289.307,688.568,1288.248,688.568z M734.162,673.234c-1.059,0-1.917-0.858-1.917-1.917v-14.318
			c0-1.059,0.858-1.918,1.917-1.918c1.059,0,1.918,0.858,1.918,1.918v14.318C736.079,672.376,735.221,673.234,734.162,673.234z
			 M1288.248,659.933c-1.059,0-1.917-0.858-1.917-1.918v-14.317c0-1.059,0.858-1.918,1.917-1.918s1.917,0.858,1.917,1.918v14.317
			C1290.165,659.074,1289.307,659.933,1288.248,659.933z M734.162,644.599c-1.059,0-1.917-0.858-1.917-1.918v-14.318
			c0-1.059,0.858-1.917,1.917-1.917c1.059,0,1.918,0.858,1.918,1.917v14.318C736.079,643.741,735.221,644.599,734.162,644.599z
			 M1288.248,631.297c-1.059,0-1.917-0.858-1.917-1.918v-14.317c0-1.059,0.858-1.917,1.917-1.917s1.917,0.858,1.917,1.917v14.317
			C1290.165,630.439,1289.307,631.297,1288.248,631.297z M734.162,615.964c-1.059,0-1.917-0.858-1.917-1.918v-14.318
			c0-1.059,0.858-1.951,1.917-1.951c1.059,0,1.918,0.825,1.918,1.884v14.384C736.079,615.106,735.221,615.964,734.162,615.964z
			 M1288.248,602.662c-1.059,0-1.917-0.858-1.917-1.917v-1.016c0-3.886-1.741-7.615-4.775-10.231
			c-0.802-0.691-0.892-1.902-0.2-2.704c0.69-0.801,1.901-0.893,2.704-0.2c3.88,3.345,6.105,8.132,6.105,13.135v1.016
			C1290.165,601.804,1289.307,602.662,1288.248,602.662z M740.447,589.283c-0.582,0-1.156-0.264-1.533-0.764
			c-0.637-0.846-0.467-2.048,0.378-2.685c3.266-2.458,7.191-3.758,11.351-3.758h3.386c1.059,0,1.917,0.858,1.917,1.918
			c0,1.059-0.858,1.917-1.917,1.917h-3.386c-3.321,0-6.449,1.033-9.045,2.987C741.253,589.158,740.849,589.283,740.447,589.283z
			 M1269.465,585.911h-14.317c-1.059,0-1.917-0.858-1.917-1.917c0-1.059,0.858-1.918,1.917-1.918h14.317
			c1.059,0,1.917,0.858,1.917,1.918C1271.382,585.052,1270.523,585.911,1269.465,585.911z M1240.83,585.911h-14.318
			c-1.059,0-1.918-0.858-1.918-1.917c0-1.059,0.858-1.918,1.918-1.918h14.318c1.059,0,1.917,0.858,1.917,1.918
			C1242.747,585.052,1241.889,585.911,1240.83,585.911z M1212.194,585.911h-14.318c-1.059,0-1.917-0.858-1.917-1.917
			c0-1.059,0.858-1.918,1.917-1.918h14.318c1.059,0,1.917,0.858,1.917,1.918C1214.112,585.052,1213.253,585.911,1212.194,585.911z
			 M1183.559,585.911h-14.318c-1.059,0-1.917-0.858-1.917-1.917c0-1.059,0.858-1.918,1.917-1.918h14.318
			c1.059,0,1.917,0.858,1.917,1.918C1185.477,585.052,1184.618,585.911,1183.559,585.911z M1154.924,585.911h-14.318
			c-1.059,0-1.917-0.858-1.917-1.917c0-1.059,0.858-1.918,1.917-1.918h14.318c1.059,0,1.917,0.858,1.917,1.918
			C1156.841,585.052,1155.983,585.911,1154.924,585.911z M1126.288,585.911h-14.317c-1.059,0-1.917-0.858-1.917-1.917
			c0-1.059,0.858-1.918,1.917-1.918h14.317c1.059,0,1.917,0.858,1.917,1.918C1128.206,585.052,1127.347,585.911,1126.288,585.911z
			 M1097.653,585.911h-14.318c-1.059,0-1.917-0.858-1.917-1.917c0-1.059,0.858-1.918,1.917-1.918h14.318
			c1.059,0,1.917,0.858,1.917,1.918C1099.57,585.052,1098.712,585.911,1097.653,585.911z M1069.018,585.911H1054.7
			c-1.059,0-1.917-0.858-1.917-1.917c0-1.059,0.858-1.918,1.917-1.918h14.317c1.059,0,1.917,0.858,1.917,1.918
			C1070.935,585.052,1070.077,585.911,1069.018,585.911z M1040.382,585.911h-14.317c-1.059,0-1.917-0.858-1.917-1.917
			c0-1.059,0.858-1.918,1.917-1.918h14.317c1.059,0,1.917,0.858,1.917,1.918C1042.3,585.052,1041.441,585.911,1040.382,585.911z
			 M1011.747,585.911H997.43c-1.059,0-1.917-0.858-1.917-1.917c0-1.059,0.858-1.918,1.917-1.918h14.317
			c1.059,0,1.917,0.858,1.917,1.918C1013.665,585.052,1012.806,585.911,1011.747,585.911z M983.112,585.911h-14.318
			c-1.059,0-1.917-0.858-1.917-1.917c0-1.059,0.858-1.918,1.917-1.918h14.318c1.059,0,1.918,0.858,1.918,1.918
			C985.029,585.052,984.171,585.911,983.112,585.911z M954.477,585.911h-14.318c-1.059,0-1.917-0.858-1.917-1.917
			c0-1.059,0.858-1.918,1.917-1.918h14.318c1.059,0,1.917,0.858,1.917,1.918C956.394,585.052,955.536,585.911,954.477,585.911z
			 M925.841,585.911h-14.318c-1.059,0-1.917-0.858-1.917-1.917c0-1.059,0.858-1.918,1.917-1.918h14.318
			c1.059,0,1.917,0.858,1.917,1.918C927.759,585.052,926.9,585.911,925.841,585.911z M897.206,585.911h-14.318
			c-1.059,0-1.917-0.858-1.917-1.917c0-1.059,0.858-1.918,1.917-1.918h14.318c1.059,0,1.917,0.858,1.917,1.918
			C899.123,585.052,898.265,585.911,897.206,585.911z M868.571,585.911h-14.318c-1.059,0-1.917-0.858-1.917-1.917
			c0-1.059,0.858-1.918,1.917-1.918h14.318c1.059,0,1.917,0.858,1.917,1.918C870.488,585.052,869.63,585.911,868.571,585.911z
			 M839.935,585.911h-14.318c-1.059,0-1.917-0.858-1.917-1.917c0-1.059,0.858-1.918,1.917-1.918h14.318
			c1.059,0,1.918,0.858,1.918,1.918C841.853,585.052,840.995,585.911,839.935,585.911z M811.3,585.911h-14.318
			c-1.059,0-1.917-0.858-1.917-1.917c0-1.059,0.858-1.918,1.917-1.918H811.3c1.059,0,1.917,0.858,1.917,1.918
			C813.218,585.052,812.359,585.911,811.3,585.911z M782.665,585.911h-14.318c-1.059,0-1.917-0.858-1.917-1.917
			c0-1.059,0.858-1.918,1.917-1.918h14.318c1.059,0,1.917,0.858,1.917,1.918C784.582,585.052,783.724,585.911,782.665,585.911z"/>
		<path style="fill:#66A2FF;" d="M1308.195,843.959l-509.041,0c-10.717,0-19.405-8.688-19.405-19.404V535.728
			c0-10.717,8.688-19.405,19.404-19.405l509.041,0c10.717,0,19.405,8.688,19.405,19.404v288.827
			C1327.599,835.271,1318.912,843.959,1308.195,843.959z"/>
		<rect x="779.75" y="578.2" style="fill:#0046B3;" width="547.85" height="56.535"/>
		<path style="fill:#D1F5FF;" d="M905.238,781.099l-80.551,0c-5.12,0-9.271,4.151-9.271,9.271v0c0,5.12,4.151,9.271,9.271,9.271
			h80.551c5.12,0,9.271-4.151,9.271-9.271l0,0C914.509,785.249,910.358,781.099,905.238,781.099z"/>
		<path style="fill:#D1F5FF;" d="M1029.11,781.099h-80.551c-5.12,0-9.271,4.151-9.271,9.271l0,0c0,5.12,4.151,9.271,9.271,9.271
			h80.551c5.12,0,9.271-4.151,9.271-9.271l0,0C1038.381,785.249,1034.23,781.099,1029.11,781.099z"/>
		<path style="fill:#D1F5FF;" d="M1152.983,781.099h-80.551c-5.12,0-9.271,4.151-9.271,9.271l0,0c0,5.12,4.151,9.271,9.271,9.271
			l80.551,0c5.12,0,9.271-4.151,9.271-9.271v0C1162.254,785.249,1158.103,781.099,1152.983,781.099z"/>
		<path style="fill:#D1F5FF;" d="M1276.855,781.099l-80.551,0c-5.12,0-9.271,4.151-9.271,9.271v0c0,5.12,4.151,9.271,9.271,9.271
			h80.551c5.12,0,9.271-4.151,9.271-9.271l0,0C1286.126,785.249,1281.975,781.099,1276.855,781.099z"/>
		<path style="fill:#D1F5FF;" d="M820.975,532.952L820.975,532.952c-5.651,0-10.232,4.581-10.232,10.232v3.595
			c0,5.651,4.581,10.232,10.232,10.232l0,0c5.651,0,10.232-4.581,10.232-10.232v-3.595
			C831.208,537.533,826.626,532.952,820.975,532.952z"/>
		<path style="fill:#D1F5FF;" d="M843.021,544.982L843.021,544.982c0,6.644,5.386,12.03,12.03,12.03h42.637
			c6.644,0,12.03-5.386,12.03-12.03l0,0c0-6.644-5.386-12.03-12.03-12.03h-42.637C848.407,532.952,843.021,538.338,843.021,544.982z
			"/>
		<path style="fill:#FF9F34;" d="M837.428,665.147h55.068c8.826,0,15.981,7.155,15.981,15.981v47.477
			c0,8.826-7.155,15.981-15.981,15.981l-55.068,0c-8.826,0-15.981-7.155-15.981-15.981v-47.477
			C821.447,672.302,828.602,665.147,837.428,665.147z"/>
	</g>
	<g id="Gear_1_">
		<g>
			<path style="fill:none;stroke:#B3D1FF;stroke-width:4;stroke-linejoin:round;stroke-miterlimit:10;" d="M1907.461,777.235
				c6.427-25.362,7.483-50.982,3.814-75.403l7.758-1.165l15.321-2.291l0.195-0.042c-4.157-27.953-13.71-54.602-28.014-78.493
				l-20.18,12.021c-12.948-21.613-30.019-40.772-50.675-55.954l14.009-18.928c-21.845-16.314-47.275-28.653-75.321-35.76
				l-5.791,22.852c-25.451-6.449-50.982-7.483-75.403-3.815l-3.499-23.273c-27.954,4.155-54.624,13.795-78.493,28.013l12.022,20.181
				c-21.615,12.947-40.771,30.018-55.956,50.675l-18.927-14.008c-16.313,21.844-28.654,47.274-35.761,75.321l22.854,5.791
				c-6.449,25.45-7.485,50.981-3.816,75.402l-16.468,2.459l-6.717,1.062l-0.087-0.022c4.155,27.952,13.795,54.623,28.012,78.493
				l20.182-12.021c12.947,21.614,30.103,40.793,50.759,55.976l-14.009,18.928c21.845,16.313,47.19,28.632,75.236,35.739
				l5.791-22.853c25.449,6.449,51.068,7.506,75.489,3.838l2.691,18.092l0.806,5.179c27.954-4.155,54.537-13.817,78.406-28.034
				l-12.019-20.181c21.613-12.948,40.793-30.103,56.062-50.739l18.927,14.008c16.228-21.866,28.546-47.211,35.653-75.257
				L1907.461,777.235z M1695.839,831.115c-55.833-14.148-89.57-70.786-75.422-126.618c14.126-55.746,70.764-89.481,126.597-75.333
				c55.746,14.126,89.481,70.762,75.355,126.508C1808.221,811.505,1751.585,845.242,1695.839,831.115z"/>
		</g>
		<g>
			<path style="fill:none;stroke:#B3D1FF;stroke-width:4;stroke-linejoin:round;stroke-miterlimit:10;" d="M1997.254,986.185
				c-8.583-10.775-18.984-19.381-30.389-25.625l1.984-3.623l3.922-7.152l0.045-0.095c-13.041-7.164-27.254-11.652-41.826-13.269
				l-1.391,12.288c-13.184-1.46-26.654-0.409-39.599,3.411l-3.47-11.903c-13.799,3.958-27.073,10.685-38.989,20.176l7.733,9.709
				c-10.813,8.613-19.381,18.984-25.625,30.389l-10.87-5.949c-7.166,13.041-11.623,27.29-13.269,41.826l12.289,1.392
				c-1.461,13.185-0.41,26.654,3.41,39.6l-11.902,3.47c3.958,13.798,10.684,27.073,20.175,38.989l9.709-7.734
				c8.612,10.813,18.983,19.382,30.388,25.625l-4.217,7.686l-1.695,3.154l-0.037,0.029c13.04,7.165,27.291,11.623,41.825,13.27
				l1.392-12.29c13.185,1.46,26.69,0.381,39.636-3.439l3.47,11.903c13.798-3.958,27.037-10.656,38.953-20.147l-7.733-9.709
				c10.812-8.612,19.418-19.013,25.662-30.418l8.441,4.637l2.428,1.312c7.166-13.041,11.586-27.261,13.233-41.796l-12.289-1.393
				c1.46-13.184,0.381-26.69-3.403-39.665l11.902-3.47c-3.994-13.769-10.692-27.008-20.183-38.923L1997.254,986.185z
				 M1952.406,1092.053c-23.721,18.894-58.21,14.987-77.103-8.733c-18.864-23.684-14.957-58.172,8.764-77.066
				c23.684-18.864,58.172-14.958,77.036,8.726C1979.996,1038.701,1976.09,1073.189,1952.406,1092.053z"/>
		</g>
		<g>
			<path style="fill:none;stroke:#003880;stroke-width:4;stroke-miterlimit:10;" d="M1121.204,1551.937
				c-9.904-12.434-21.907-22.365-35.068-29.57l2.289-4.181l4.525-8.253l0.052-0.11c-15.049-8.268-31.451-13.446-48.266-15.312
				l-1.606,14.18c-15.215-1.685-30.758-0.472-45.697,3.936l-4.004-13.736c-15.923,4.567-31.242,12.33-44.992,23.282l8.924,11.203
				c-12.478,9.939-22.365,21.907-29.571,35.068l-12.543-6.865c-8.269,15.048-13.413,31.493-15.312,48.266l14.181,1.606
				c-1.686,15.215-0.473,30.758,3.935,45.698l-13.735,4.004c4.567,15.922,12.329,31.242,23.281,44.992l11.204-8.924
				c9.938,12.477,21.906,22.366,35.067,29.571l-4.866,8.87l-1.956,3.639l-0.042,0.034c15.048,8.268,31.492,13.413,48.265,15.313
				l1.606-14.182c15.215,1.685,30.8,0.439,45.739-3.969l4.004,13.736c15.923-4.568,31.2-12.297,44.95-23.249l-8.924-11.204
				c12.477-9.938,22.408-21.94,29.614-35.101l9.74,5.351l2.802,1.514c8.269-15.048,13.37-31.459,15.27-48.232l-14.181-1.607
				c1.685-15.215,0.439-30.8-3.927-45.773l13.735-4.004c-4.609-15.889-12.339-31.166-23.291-44.916L1121.204,1551.937z
				 M1069.451,1674.106c-27.373,21.803-67.172,17.295-88.975-10.078c-21.769-27.33-17.26-67.129,10.113-88.932
				c27.33-21.769,67.129-17.261,88.897,10.07C1101.289,1612.538,1096.781,1652.337,1069.451,1674.106z"/>
		</g>
	</g>
</g>
<g id="phone">
	<g id="phone_1_">
		<path style="fill:#66A2FF;" d="M1720.562,728.066c-11.105-65.784-112.41-95.482-110.425-52.546l-464.399,2.72
			c-32.165,0.188-58.247,29.125-58.275,64.665l-0.964,1221.371c-0.029,36.818,26.506,66.921,59.289,67.202l474.078,4.067
			c2.941,6.179,8.45,11.801,17.127,16.495c54.368,1.158,80.445-25.691,89.971-56.045c3.102-8.146,4.79-17.152,4.713-26.643
			C1729.778,1953.452,1723.998,743.491,1720.562,728.066z"/>
		<path style="fill:#FFFFFF;" d="M1631.924,2052.234l-544.173-3.508c-33.958-0.219-61.424-31.136-61.363-69.019l2.042-1256.07
			c0.059-36.531,27.092-66.205,60.392-66.313l533.601-1.734c33.564-0.109,61.013,29.523,61.294,66.22l9.672,1261.877
			C1693.682,2021.749,1666.156,2052.454,1631.924,2052.234z"/>
		<path d="M1639.436,2043.097c-2.26,0.303-4.574,0.448-6.876,0.43l-544.006-4.116c-29.179-0.221-53.029-27.325-52.98-60.392
			l1.88-1254.691c0.048-31.891,23.521-57.918,52.142-58.042l533.566-2.321c0.834-0.003,1.677,0.014,2.507,0.053
			c13.427,0.623,25.975,6.739,35.353,17.207c9.586,10.699,14.918,24.877,15.032,39.946l9.544,1263.156
			C1685.825,2014.264,1666.049,2039.531,1639.436,2043.097z"/>
		<polygon style="fill:#0050CC;" points="1657.344,727.521 1666.521,1986.278 1053.675,1982.609 1055.238,727.521 		"/>
	</g>
	<g id="login">
		<path style="fill:#FF9F34;" d="M1444.124,1360.926H1280.06c-13.882,0-25.24-11.358-25.24-25.24l0,0
			c0-13.882,11.358-25.24,25.24-25.24h164.064c13.882,0,25.24,11.358,25.24,25.24l0,0
			C1469.363,1349.568,1458.005,1360.926,1444.124,1360.926z"/>
		<path style="fill:#FFFFFF;" d="M1568.933,1173.554h-424.22c-13.882,0-25.24-11.358-25.24-25.24l0,0
			c0-13.882,11.358-25.24,25.24-25.24h424.22c13.882,0,25.24,11.358,25.24,25.24l0,0
			C1594.173,1162.196,1582.815,1173.554,1568.933,1173.554z"/>
		<path style="fill:#FFFFFF;" d="M1568.933,1254.847h-424.22c-13.882,0-25.24-11.358-25.24-25.24l0,0
			c0-13.882,11.358-25.24,25.24-25.24h424.22c13.882,0,25.24,11.358,25.24,25.24l0,0
			C1594.173,1243.489,1582.815,1254.847,1568.933,1254.847z"/>
		<g>
			<path style="fill:#80B2FF;" d="M1223.926,1231.844c0,4.908-3.978,8.886-8.886,8.886c-4.908,0-8.886-3.978-8.886-8.886
				c0-4.908,3.979-8.886,8.886-8.886C1219.948,1222.958,1223.926,1226.936,1223.926,1231.844z"/>
			
				<ellipse transform="matrix(0.208 -0.9781 0.9781 0.208 -218.4769 2193.8616)" style="fill:#80B2FF;" cx="1245.507" cy="1231.844" rx="8.886" ry="8.886"/>
			
				<ellipse transform="matrix(0.7071 -0.7071 0.7071 0.7071 -497.3211 1263.0482)" style="fill:#80B2FF;" cx="1275.974" cy="1231.844" rx="8.886" ry="8.886"/>
			
				<ellipse transform="matrix(0.7071 -0.7071 0.7071 0.7071 -488.3976 1284.5916)" style="fill:#80B2FF;" cx="1306.44" cy="1231.844" rx="8.886" ry="8.886"/>
			
				<ellipse transform="matrix(0.9239 -0.3827 0.3827 0.9239 -369.6407 605.3819)" style="fill:#80B2FF;" cx="1336.907" cy="1231.844" rx="8.886" ry="8.886"/>
			
				<ellipse transform="matrix(0.2298 -0.9732 0.9732 0.2298 -145.6761 2279.6177)" style="fill:#80B2FF;" cx="1367.374" cy="1231.844" rx="8.886" ry="8.886"/>
			
				<ellipse transform="matrix(0.7071 -0.7071 0.7071 0.7071 -461.627 1349.2213)" style="fill:#80B2FF;" cx="1397.841" cy="1231.844" rx="8.886" ry="8.886"/>
			
				<ellipse transform="matrix(0.7071 -0.7071 0.7071 0.7071 -452.7035 1370.7645)" style="fill:#80B2FF;" cx="1428.307" cy="1231.844" rx="8.886" ry="8.886"/>
			
				<ellipse transform="matrix(0.9239 -0.3827 0.3827 0.9239 -360.364 652.0185)" style="fill:#80B2FF;" cx="1458.774" cy="1231.844" rx="8.886" ry="8.886"/>
		</g>
		<g>
			
				<ellipse transform="matrix(0.7071 -0.7071 0.7071 0.7071 -277.7909 1239.2118)" style="fill:#FFFFFF;" cx="1356.965" cy="954.929" rx="97.517" ry="97.517"/>
			<g>
				<g>
					<path style="fill:#005CEA;" d="M1357.105,951.004c9.519,0,18.31-4.637,23.925-11.718c4.148-5.126,6.592-11.718,6.592-19.043
						c0-16.844-13.673-30.761-30.517-30.761c-17.088,0-30.761,13.917-30.761,30.761c0,7.325,2.438,13.917,6.592,19.043
						C1338.551,946.367,1347.336,951.004,1357.105,951.004z"/>
				</g>
				<path style="fill:#005CEA;" d="M1411.156,1005.817c0,19.412-108.403,19.412-108.403,0l0.035-22.622
					c4.284-30.925,99.558-32.224,108.389,0L1411.156,1005.817z"/>
			</g>
		</g>
		<path style="fill:#4D4D4D;" d="M1165.753,1224.953v-1.353c0-5.475-4.454-9.931-9.931-9.931s-9.931,4.456-9.931,9.931v1.353h-1.508
			v17.899c0,3.093,22.941,3.093,22.941,0v-17.899H1165.753z M1149.431,1223.6c0-3.436,2.119-6.556,6.391-6.556
			c4.27,0,6.459,2.921,6.459,6.556v1.353h-12.85V1223.6z M1157.512,1233.969v5.17c0,0.929-0.796,1.591-1.725,1.591
			c-0.929,0-1.589-0.662-1.589-1.591v-5.17c-0.929-0.531-1.593-1.46-1.593-2.653c0-1.724,1.46-3.182,3.182-3.182
			c1.725,0,3.182,1.458,3.182,3.182C1158.968,1232.51,1158.305,1233.439,1157.512,1233.969z"/>
		<g>
			<g>
				<g>
					<path style="fill:#4D4D4D;" d="M1155.846,1146.483c2.009,0,3.864-0.979,5.049-2.473c0.875-1.082,1.391-2.473,1.391-4.018
						c0-3.554-2.885-6.491-6.44-6.491c-3.606,0-6.491,2.937-6.491,6.491c0,1.546,0.514,2.937,1.391,4.018
						C1151.931,1145.505,1153.785,1146.483,1155.846,1146.483z"/>
				</g>
				<path style="fill:#4D4D4D;" d="M1167.252,1158.05c0,4.096-22.992,4.096-22.992,0l0.125-4.774c0.904-6.526,21.009-6.8,22.872,0
					L1167.252,1158.05z"/>
			</g>
			<path style="fill:#80B2FF;" d="M1304.44,1155.72h-92.965c-4.074,0-7.406-3.333-7.406-7.407l0,0c0-4.074,3.333-7.406,7.406-7.406
				h92.965c4.074,0,7.407,3.333,7.407,7.406l0,0C1311.847,1152.387,1308.514,1155.72,1304.44,1155.72z"/>
			<path style="fill:#80B2FF;" d="M1427.052,1155.72h-92.965c-4.074,0-7.407-3.333-7.407-7.407l0,0c0-4.074,3.333-7.406,7.407-7.406
				h92.965c4.074,0,7.406,3.333,7.406,7.406l0,0C1434.459,1152.387,1431.126,1155.72,1427.052,1155.72z"/>
		</g>
	</g>
	<g id="key">
		<path style="fill:#FFFFFF;" d="M1231.798,1621.327v183.897c0,20.436,250.049,20.436,250.049,0v-183.897H1231.798z"/>
		<g>
			
				<ellipse transform="matrix(0.2298 -0.9732 0.9732 0.2298 -600.4672 2622.8499)" style="fill:#005CEA;" cx="1356.824" cy="1690.787" rx="30.871" ry="30.871"/>
			<path style="fill:#005CEA;" d="M1356.824,1783.758L1356.824,1783.758c-6.988,0-12.654-5.665-12.654-12.654v-70.805h25.307v70.805
				C1369.477,1778.093,1363.812,1783.758,1356.824,1783.758z"/>
		</g>
		<path style="fill:#FFFFFF;" d="M1459.933,1608.224h-25.307v-12.382c0-42.903-34.904-77.807-77.799-77.807
			c-42.903,0-77.807,34.904-77.807,77.807v12.382h-25.307v-12.382c0-56.858,46.256-103.114,103.114-103.114
			c56.85,0,103.106,46.256,103.106,103.114V1608.224z"/>
	</g>
</g>
<g id="shield">
	<g>
		<g>
			<g>
				<path style="fill:#D9FFFF;" d="M1565.927,1399.552L1565.927,1399.552c0.004-0.976,0.006-1.406,0.007-1.505
					C1565.933,1398.228,1565.927,1399.552,1565.927,1399.552z"/>
				<path style="fill:#D9FFFF;" d="M1565.927,1399.552L1565.927,1399.552c0.004-0.976,0.006-1.406,0.007-1.505
					C1565.933,1398.228,1565.927,1399.552,1565.927,1399.552z"/>
				<path style="fill:#D9FFFF;" d="M2148.296,1402.155c0,0,0.006-1.324,0.007-1.505
					C2148.303,1400.749,2148.301,1401.179,2148.296,1402.155L2148.296,1402.155z"/>
				<path style="fill:#D9FFFF;" d="M2148.296,1402.155c0,0,0.006-1.324,0.007-1.505
					C2148.303,1400.749,2148.301,1401.179,2148.296,1402.155L2148.296,1402.155z"/>
				<path style="fill:#FFFFFF;" d="M1858.19,1262.703c-64.466,69.055-167.333,125.649-277.409,149.761
					c-0.033,7.352-0.215,48.083-1.054,235.82c-1.12,250.439,237.223,372.821,274.225,391.603
					c35.853-16.503,277.203-138.694,278.322-389.133c0.839-187.737,1.021-228.468,1.054-235.82
					C2023.472,1389.839,1922.036,1332.332,1858.19,1262.703z"/>
			</g>
		</g>
		<g>
			<path style="fill:#80B2FF;" d="M1857.611,1289.864c-66.457,60.964-158.527,108.881-259.77,134.998l-0.999,223.378
				c-0.457,102.211,40.148,194.674,120.692,274.835c52.921,52.669,108.563,85.335,136.797,100.024
				c1.214-0.616,2.546-1.312,3.858-1.994v-730.721C1857.998,1290.21,1857.798,1290.041,1857.611,1289.864z"/>
			<path style="fill:#4D93FF;" d="M1858.19,1290.385v730.721c29.359-15.273,82.724-46.845,133.829-96.803
				c81.253-79.437,122.685-171.535,123.14-273.746l0.999-223.381C2015.441,1400.236,1924.052,1351.692,1858.19,1290.385z"/>
		</g>
		<path style="fill:#0046B3;" d="M2061.044,1514.283c-77.076,11.886-182.032,82.183-248.245,166.713
			c-9.287-39.856-50.981-76.242-72.794-84.196l-66.087,66.426c41.264,18.596,86.356,71.284,92.334,125.223l66.018,10.231
			c27.835-54.981,99.72-186.496,242.733-257.211C2072.247,1530.704,2062.15,1515.819,2061.044,1514.283z"/>
	</g>
</g>
<g id="lady">
	<g>
		<path style="fill:#F7A58E;" d="M805.479,1113.273l-11.624,46.721l-2.112,8.687c-2.347,11.035-75.245,6.339-70.081-6.573
			l4.345-9.508l22.42-49.187L805.479,1113.273z"/>
		<g>
			<g>
				<path style="fill:#F7A58E;" d="M848.1,1043.966c0.743,50.659-22.774,91.855-59.575,91.677
					c-36.801-0.178-72.405-31.401-73.693-92.322c-0.82-38.812,30.173-70.145,66.974-69.967
					C818.608,973.532,847.531,1005.15,848.1,1043.966z"/>
			</g>
			<path d="M782.913,959.424c0,0,73.328,3.62,79.428,59.157c8.142,48.742-28.426,12.907-43.356,45.619
				c-17.101,37.467,0.327,64.886,22.554,72.333c-19.759,27.589-132.747,26.596-161.823-21.809
				C659.802,1054.006,687.977,962.792,782.913,959.424z"/>
			<path style="fill:#F7A58E;" d="M834.331,1062.196c0.611,7.52-4.99,14.112-12.51,14.723c-7.52,0.611-14.112-4.99-14.723-12.51
				c-0.611-7.52,4.989-14.112,12.51-14.723S833.72,1054.676,834.331,1062.196z"/>
		</g>
		<path style="fill:#FFFFFF;" d="M823.1,2004.681c3.437-3.642,19.652-3.697,21.132,1.686c1.48,5.383-1.377,9.23,5.465,17.765
			c-3.938,1.137-17.904,1.243-22.179,0C823.243,2022.889,819.662,2008.323,823.1,2004.681z"/>
		<path style="fill:#00050D;" d="M796.307,2023.081h39.512c3.694-167.198,2.987-349.211,1.657-486.291
			c-0.478-49.091-1.832-73.921-10.732-103.394c-17.984-59.512-102.531-41.189-108.53,12.752c-2.5,29.935-4.33,88.333,51.007,286.766
			C745.257,1820.285,787.065,1925.036,796.307,2023.081z"/>
		<path style="fill:#FFFFFF;" d="M857.948,2025.63c-5.82-0.311-19.409-5.914-21.972-9.781c-3.777,4.221-11.641,5.39-21.133,3.973
			c-11.212-1.674-12.692-6.884-20.734-6.189c-3.391,9.428-11.651,30.584-3.682,35.49c0,0,47.118,0,83.073,0
			C880.916,2042.349,880.721,2027.896,857.948,2025.63z"/>
		<g>
			<path style="fill:#FFFFFF;" d="M621.936,2008.912c2.889-3.06,16.515-3.107,17.759,1.417c1.243,4.524-1.157,7.756,4.593,14.929
				c-3.309,0.956-15.047,1.045-18.639,0C622.056,2024.214,619.047,2011.972,621.936,2008.912z"/>
			<path style="fill:#00050D;" d="M752.153,1444.63c-8.08-61.642-117.743-55.31-125.033-1.488
				c-2.634,28.963-10.678,72.554,9.929,287.673c-43.473,82.094-31.189,199.887-44.175,286.598
				c-1.434,13.193,35.939,16.364,38.841,4.604c39.828-160.875,95.482-341.366,116.171-475.208
				C755.391,1498.292,756.149,1475.159,752.153,1444.63z"/>
			<path style="fill:#FFFFFF;" d="M651.341,2023.081c-5.82-0.311-14.401-7.883-16.963-11.751
				c-3.777,4.221-10.987,9.908-20.479,8.492c-11.212-1.674-12.692-6.884-20.734-6.189c-3.391,9.428-11.651,30.584-3.682,35.49
				c0,0,44.851,0,80.807,0C677.705,2042.349,674.114,2025.347,651.341,2023.081z"/>
		</g>
		<g>
			<path style="fill:#F7A58E;" d="M937.091,1118.357l-20.453,4.536c0.465,10.762-0.827,27.953,0,46.93l34.399-4.53
				C945.802,1146.182,940.75,1129.433,937.091,1118.357z"/>
			<path style="fill:#FFFFFF;" d="M916.638,1169.823c-0.763,37.613-1.767,53.726-2.078,68.544l-102.061-65.458
				c-31.1-9.441-67.366,52.118-28.044,79.895c0,0,135.921,76.746,166.496,54.639c16.54-11.959,12.25-97.75,0.087-142.149
				L916.638,1169.823z"/>
			<g>
				<path style="fill:#F7A58E;" d="M946.335,1098.35c-9.451-11.082-30.202-7.217-31.776-6.918l1.995,30.653
					c0.465,15.137,19.237,15.652,26.885,2.603C943.439,1124.688,954.521,1109.263,946.335,1098.35z"/>
				<path style="fill:#F7A58E;" d="M924.601,1094.33c-6.886-33.391-13.839-28.915-13.839-28.915s1.115,11.797,4.226,32.619
					C917.319,1109.828,925.454,1102.714,924.601,1094.33z"/>
			</g>
		</g>
		<path id="XMLID_2_" style="fill:#FFFFFF;" d="M836.613,1260.876c6.93-33.727,10.647-67.028-24.115-87.968
			c-20.611-12.416-86.862-21.282-117.839-11.031c-31.214,13.951-24.464,74.79-30.311,170.867
			c-21.509,47.945-30.86,63.697-37.228,110.398c0,0,11.507,35.186,92.575,35.233c36.811,0.021,91.028-3.252,115.691-22.027
			c-2.46-31.846-15.777-62.53-21.327-107.616C814.06,1348.732,836.111,1264.745,836.613,1260.876z"/>
		<g>
			<g>
				<path style="fill:#FFFFFF;" d="M678.009,1168.661c-38.049,29.05-75.162,74.73-92.702,98.989
					c-17.539,24.259-62.97,121.754-62.97,121.754l28.913,21.316l78.207-106.563l95.543-78.367
					C758.155,1191.95,715.069,1140.366,678.009,1168.661z"/>
				<path style="fill:#F7A58E;" d="M510.224,1414.127l18.741-38.723c4.409,11.645,25.864,22.267,32.025,22.045
					c0,0-20.152,28.999-25.079,33.927C530.984,1436.303,510.631,1427.96,510.224,1414.127z"/>
			</g>
			<g>
				<path style="fill:#F7A58E;" d="M540.652,1424.906c-0.075,0.289,0.009,0.68-0.066,0.968c-0.941,14.09-11.772,20.76-14.703,22.34
					c-0.233,0.186-0.494,0.242-0.754,0.297c10.187-2.039,13.238,11.609,8.055,14.758c-14.993,10.147-36.359-3.811-38.167-12.277
					c-1.835-8.595,15.244-37.029,15.244-37.029C518.972,1406.928,541.27,1408.023,540.652,1424.906z"/>
				<path style="fill:#E6856A;" d="M540.586,1425.874c-0.601,15.925-14.955,22.478-15.216,22.534
					c-8.397-0.233-11.389-0.74-19.403-0.719c5.23-2.552,15.957-9.337,11.804-22.513
					C525.985,1418.889,538.341,1424.383,540.586,1425.874z"/>
				<path style="fill:#F7A58E;" d="M540.803,1424.061c2.208,13.147,1.275,31.88-1.851,40.122c0,0-8.06,0.423-7.305-14.799
					c0.196-3.96-0.375-12.564-4.294-15.427c-12.066-7.973-14.007-15.287-9.581-21.288
					C523.67,1404.673,540.339,1412.788,540.803,1424.061z"/>
				<path style="fill:#F7A58E;" d="M503.46,1459.991c6.546,4.538,23.874,13.339,26.609,11.167
					c2.735-2.172-11.121-16.919-20.064-18.871C501.061,1450.335,500.106,1457.666,503.46,1459.991z"/>
			</g>
		</g>
	</g>
</g>
</svg>
